<svg width="20" height="24" viewBox="0 0 20 24" fill="none" xmlns="http://www.w3.org/2000/svg">
<path d="M11.4776 0.556682C12.2988 -0.205825 13.576 -0.182178 14.3684 0.610197L17.3994 3.64119C18.1918 4.43357 18.2154 5.71078 17.4529 6.53194L7.16599 17.6101C6.92948 17.8648 6.59759 18.0096 6.25 18.0096H1.25C0.559644 18.0096 0 17.4499 0 16.7596V11.7596C0 11.412 0.144727 11.0801 0.399436 10.8436L11.4776 0.556682Z" fill="#98E044"/>
<path d="M0 21.7596C0 21.0692 0.559644 20.5096 1.25 20.5096H18.75C19.4404 20.5096 20 21.0692 20 21.7596C20 22.4499 19.4404 23.0096 18.75 23.0096H1.25C0.559644 23.0096 0 22.4499 0 21.7596Z" fill="#98E044"/>
</svg>
