<svg width="41" height="42" viewBox="0 0 41 42" fill="none" xmlns="http://www.w3.org/2000/svg">
<path d="M24.7894 2.47044C22.2664 0.508141 18.7336 0.508144 16.2106 2.47045L3.19727 12.5919C1.49541 13.9156 0.5 15.9508 0.5 18.1069V34.0146C0.5 37.8733 3.62804 41.0013 7.48667 41.0013H13.1667C15.0076 41.0013 16.5 39.5089 16.5 37.668V30.7311C16.5 30.2158 16.5899 29.9319 16.6832 29.7824C17.0191 29.2439 17.4675 28.78 18.0013 28.4241C18.7405 27.9313 19.6101 27.668 20.5 27.668C21.3899 27.668 22.2595 27.9313 22.9987 28.4241C23.5325 28.78 23.981 29.2439 24.3168 29.7824C24.4101 29.9319 24.5 30.2158 24.5 30.7311V37.668C24.5 39.5089 25.9924 41.0013 27.8333 41.0013H33.5133C37.372 41.0013 40.5 37.8733 40.5 34.0146V18.1069C40.5 15.9508 39.5046 13.9156 37.8027 12.5919L24.7894 2.47044Z" fill="#98E044"/>
</svg>
